<svg aria-hidden="false" aria-label="Home" class="d-flex mr-8 mr-4@size-xl" focusable="false" height="24px" version="1.1" viewBox="0 0 88 24" width="88px" xmlns="http://www.w3.org/2000/svg"><title>KVK Developer Portal</title><g fill="#00526E"><path d="M19.052 10.5752L27.2506 0.118488H16.7769L9.5245 10.1427V0.118488H0.00593242V0.127375C0.00593242 0.127375 0 0.148111 0 0.156997C0 0.165884 0 0.174771 0.00593242 0.18662V23.8548H0.014831C0.014831 23.8548 0.0237297 23.8756 0.0266959 23.8845H9.52153C9.52153 23.8845 9.53339 23.8637 9.53339 23.8519C9.53339 23.84 9.53043 23.8252 9.5245 23.8134V14.8971C9.5245 14.8971 9.50373 14.2483 10.1444 14.0143C10.7851 13.7803 11.2093 14.4083 11.2093 14.4083L17.0112 23.7541C17.0142 23.7986 17.0527 23.843 17.118 23.8845H27.8557C27.8705 23.8756 27.8913 23.8667 27.9031 23.8548L19.046 10.5752H19.052Z"></path><path d="M78.6253 10.5752L86.8239 0.118488H76.3532L69.0979 10.1427V0.118488H59.5793V0.127375C59.5793 0.127375 59.5734 0.148111 59.5734 0.156997C59.5734 0.165884 59.5734 0.174771 59.5793 0.18662V23.8548H59.5912C59.5912 23.8548 59.6001 23.8756 59.603 23.8845H69.0979C69.0979 23.8845 69.1097 23.8637 69.1097 23.8519C69.1097 23.84 69.1068 23.8252 69.1008 23.8134V14.8971C69.1008 14.8971 69.0801 14.2483 69.7208 14.0143C70.3615 13.7803 70.7856 14.4083 70.7856 14.4083L76.5905 23.7541C76.5935 23.7986 76.632 23.843 76.6973 23.8845H87.432C87.4498 23.8756 87.4676 23.8667 87.4795 23.8548H87.4824L78.6253 10.5752Z"></path><path d="M28.6832 0.0888672H38.7209L42.8558 13.3686H42.9181L47.0856 0.0888672H56.7109L47.8776 23.8785H37.131L28.6832 0.0888672Z"></path></g></svg>