<svg width="1618" height="400" viewBox="0 0 1618 400" fill="none" xmlns="http://www.w3.org/2000/svg">
<path d="M816.394 0V73.811H710.71V391.422H633.544V73.811H528.419V0H816.394Z" fill="#1D012B"/>
<path d="M1043.54 356.753C1014.84 385.084 979.795 399.25 938.416 399.25C897.037 399.25 861.995 385.084 833.291 356.753C804.96 328.049 790.794 293.007 790.794 251.628C790.794 210.249 804.96 175.394 833.291 147.063C861.995 118.358 897.037 104.006 938.416 104.006C979.795 104.006 1014.84 118.358 1043.54 147.063C1072.24 175.394 1086.6 210.249 1086.6 251.628C1086.6 293.007 1072.24 328.049 1043.54 356.753ZM884.176 306.986C898.715 321.525 916.794 328.794 938.416 328.794C960.037 328.794 978.117 321.525 992.656 306.986C1007.19 292.448 1014.46 273.995 1014.46 251.628C1014.46 229.261 1007.19 210.809 992.656 196.27C978.117 181.732 960.037 174.462 938.416 174.462C916.794 174.462 898.715 181.732 884.176 196.27C870.01 210.809 862.927 229.261 862.927 251.628C862.927 273.995 870.01 292.448 884.176 306.986Z" fill="#1D012B"/>
<path d="M1291.26 181.172H1228.07V297.48C1228.07 307.173 1230.5 314.256 1235.34 318.729C1240.19 323.203 1247.27 325.812 1256.59 326.558C1265.91 326.93 1277.47 326.744 1291.26 325.998V391.422C1241.68 397.013 1206.64 392.354 1186.13 377.442C1166 362.531 1155.94 335.877 1155.94 297.48V181.172H1107.29V111.835H1155.94V55.3582L1228.07 33.5504V111.835H1291.26V181.172Z" fill="#1D012B"/>
<path d="M1545.87 111.835H1618V391.422H1545.87V358.43C1524.25 385.644 1493.86 399.25 1454.72 399.25C1417.44 399.25 1385.38 385.084 1358.54 356.753C1332.08 328.049 1318.84 293.007 1318.84 251.628C1318.84 210.249 1332.08 175.394 1358.54 147.063C1385.38 118.358 1417.44 104.006 1454.72 104.006C1493.86 104.006 1524.25 117.613 1545.87 144.826V111.835ZM1412.78 308.664C1427.32 323.203 1445.77 330.472 1468.14 330.472C1490.51 330.472 1508.96 323.203 1523.5 308.664C1538.41 293.753 1545.87 274.741 1545.87 251.628C1545.87 228.516 1538.41 209.69 1523.5 195.152C1508.96 180.24 1490.51 172.785 1468.14 172.785C1445.77 172.785 1427.32 180.24 1412.78 195.152C1398.24 209.69 1390.98 228.516 1390.98 251.628C1390.98 274.741 1398.24 293.753 1412.78 308.664Z" fill="#1D012B"/>
<path d="M200.356 310.048C200.368 306.152 200.368 302.256 200.368 298.36C200.368 273.658 200.275 248.967 200.391 224.265C200.496 205.287 197.396 186.93 189.676 169.697C167.92 121.105 131.338 92.3752 79.4321 87.3797C64.9434 85.9934 50.3503 85.85 35.7224 85.9456H0V153.444C22.0464 153.205 45.7762 152.739 67.7994 153.647C77.0289 154.03 86.8505 156.061 95.1745 160.065C121.679 172.816 134.983 195.272 135.169 225.281C135.367 257.644 135.378 290.019 135.32 322.382V391.422H200.484V310.048H200.356Z" fill="#BF54CE"/>
<path d="M229.251 310.048C229.24 306.152 229.24 302.256 229.24 298.36C229.24 273.658 229.333 248.967 229.216 224.265C229.112 205.287 232.212 186.93 239.932 169.697C261.688 121.105 298.27 92.3752 350.176 87.3797C364.664 85.9934 379.257 85.85 393.885 85.9456H429.608V153.444C407.561 153.205 383.831 152.739 361.808 153.647C352.579 154.03 342.757 156.061 334.433 160.065C307.929 172.816 294.624 195.272 294.438 225.281C294.241 257.644 294.23 290.019 294.288 322.382V386.617V391.422H229.124V322.382V310.048H229.251Z" fill="#BF54CE"/>
<path d="M429.609 0H0V66.828H429.609V0Z" fill="#BF54CE"/>
</svg>
